<?xml version="1.0" standalone="no"?>
<!DOCTYPE svg PUBLIC "-//W3C//DTD SVG 20010904//EN"
 "http://www.w3.org/TR/2001/REC-SVG-20010904/DTD/svg10.dtd">
<svg version="1.0" xmlns="http://www.w3.org/2000/svg"
 width="1024.000000pt" height="1024.000000pt" viewBox="0 0 1024.000000 1024.000000"
 preserveAspectRatio="xMidYMid meet">
<metadata>
Created by potrace 1.14, written by Peter Selinger 2001-2017
</metadata>
<g transform="translate(0.000000,1024.000000) scale(0.100000,-0.100000)"
fill="#000000" stroke="none">
<path d="M0 5120 l0 -5120 5120 0 5120 0 0 907 0 906 -30 -60 c-17 -33 -40
-68 -52 -79 -14 -13 -11 -5 10 25 17 24 40 68 52 97 19 51 20 77 20 384 0 307
-1 333 -20 384 -12 29 -35 73 -52 97 -21 30 -24 38 -10 25 12 -11 35 -46 52
-79 l30 -60 0 3846 0 3847 -5120 0 -5120 0 0 -5120z m787 3484 c-3 -3 -12 -4
-19 -1 -8 3 -5 6 6 6 11 1 17 -2 13 -5z m-84 -15 c-55 -10 -131 -44 -163 -72
l-25 -21 26 27 c30 33 132 77 174 76 25 -1 23 -3 -12 -10z m182 1 c13 -6 5 -7
-25 -3 -25 3 -47 7 -49 9 -9 8 55 2 74 -6z m73 -29 c20 -10 46 -29 57 -42 l20
-24 -25 21 c-14 12 -43 31 -65 42 -22 12 -36 21 -32 22 4 0 24 -9 45 -19z
m-448 -64 c0 -1 -37 -38 -82 -82 l-83 -80 80 83 c74 76 85 87 85 79z m-190
-180 c0 -1 -39 -41 -87 -87 l-88 -85 85 88 c79 81 90 92 90 84z m-214 -220
c-14 -18 -34 -53 -45 -77 -11 -25 -21 -39 -21 -32 0 25 70 142 86 142 3 0 -6
-15 -20 -33z m-79 -264 c-2 -21 -4 -4 -4 37 0 41 2 58 4 38 2 -21 2 -55 0 -75z
m75 -188 c17 -23 18 -27 3 -15 -20 17 -75 126 -75 150 0 8 12 -12 25 -45 14
-33 35 -73 47 -90z m1073 -1094 c-3 -2 -6 -2 -7 0 -2 3 -239 243 -528 534
l-525 530 532 -530 c293 -291 530 -531 528 -534z m1240 579 c10 -11 16 -20 13
-20 -3 0 -13 9 -23 20 -10 11 -16 20 -13 20 3 0 13 -9 23 -20z m65 -65 c13
-14 21 -25 18 -25 -2 0 -15 11 -28 25 -13 14 -21 25 -18 25 2 0 15 -11 28 -25z
m55 -55 c10 -11 16 -20 13 -20 -3 0 -13 9 -23 20 -10 11 -16 20 -13 20 3 0 13
-9 23 -20z m56 -57 c13 -16 12 -17 -3 -4 -10 7 -18 15 -18 17 0 8 8 3 21 -13z
m799 -798 c426 -426 773 -775 770 -775 -3 0 -354 349 -780 775 -426 426 -773
775 -770 775 3 0 354 -349 780 -775z m-2180 365 c6 -11 8 -20 6 -20 -3 0 -10
9 -16 20 -6 11 -8 20 -6 20 3 0 10 -9 16 -20z m745 -747 l650 -653 -667 -665
c-367 -366 -667 -663 -665 -661 1 2 298 302 660 665 l658 661 -646 649 c-356
357 -649 652 -652 655 -4 3 -2 5 3 4 5 -1 301 -295 659 -655z m2260 -467 c12
-23 26 -57 29 -76 4 -26 1 -22 -12 17 -11 29 -32 69 -47 90 -16 21 -21 32 -11
24 9 -8 28 -33 41 -55z m42 -223 c-2 -21 -4 -4 -4 37 0 41 2 58 4 38 2 -21 2
-55 0 -75z m-10 -65 c-3 -8 -6 -5 -6 6 -1 11 2 17 5 13 3 -3 4 -12 1 -19z
m-32 -82 c-14 -24 -33 -50 -41 -57 -8 -7 1 12 20 42 20 29 36 60 37 69 0 9 2
11 5 3 3 -7 -6 -32 -21 -57z m-55 -79 c0 -1 -345 -346 -767 -767 l-768 -765
765 768 c421 422 766 767 767 767 2 0 3 -1 3 -3z m-2930 -1111 c0 -2 -8 -10
-17 -17 -16 -13 -17 -12 -4 4 13 16 21 21 21 13z m-55 -66 c-10 -11 -20 -18
-22 -16 -6 5 30 44 36 39 2 -1 -4 -12 -14 -23z m-35 -33 c0 -1 -231 -232 -512
-512 l-513 -510 510 513 c474 476 515 516 515 509z m1450 -360 c0 -2 -10 -12
-22 -23 l-23 -19 19 23 c18 21 26 27 26 19z m-120 -120 c0 -2 -10 -12 -22 -23
l-23 -19 19 23 c18 21 26 27 26 19z m-50 -50 c0 -2 -12 -14 -27 -28 l-28 -24
24 28 c23 25 31 32 31 24z m2568 -304 c-10 -2 -28 -2 -40 0 -13 2 -5 4 17 4
22 1 32 -1 23 -4z m4977 -3 c12 -5 -1 -6 -35 -3 -30 3 -57 7 -59 9 -9 8 75 2
94 -6z m-5048 -6 c-3 -3 -12 -4 -19 -1 -8 3 -5 6 6 6 11 1 17 -2 13 -5z m-72
-26 c-97 -51 -165 -130 -196 -226 -10 -31 -18 -50 -18 -41 -2 35 32 108 75
162 44 57 134 126 164 126 8 0 -3 -9 -25 -21z m5209 -3 c24 -14 52 -35 62 -48
l19 -22 -25 22 c-14 12 -47 33 -74 47 -27 14 -43 26 -37 26 7 0 32 -11 55 -25z
m-9954 -183 c-11 -15 -31 -54 -45 -87 -13 -33 -25 -53 -25 -45 0 20 47 120 67
142 24 27 26 21 3 -10z m4527 -564 c-1 -84 -3 -16 -3 152 0 168 2 236 3 153 2
-84 2 -222 0 -305z m-4600 305 c-2 -21 -4 -4 -4 37 0 41 2 58 4 38 2 -21 2
-55 0 -75z m96 -213 l22 -25 -24 20 c-26 22 -81 112 -81 134 0 7 14 -13 31
-45 17 -33 40 -70 52 -84z m127 -125 c47 -47 82 -85 80 -85 -3 0 -43 38 -90
85 -47 47 -82 85 -80 85 3 0 43 -38 90 -85z m195 -185 c38 -38 67 -70 64 -70
-2 0 -36 32 -74 70 -38 39 -67 70 -64 70 2 0 36 -31 74 -70z m4249 -95 c41
-63 99 -110 174 -141 31 -13 50 -24 42 -24 -34 0 -124 53 -173 102 -55 56 -94
123 -102 179 -4 25 -1 21 11 -15 8 -27 30 -73 48 -101z m-3685 1 c-39 -37
-134 -77 -177 -75 -20 1 -16 3 15 9 60 12 138 48 164 76 12 13 25 24 28 24 3
0 -10 -16 -30 -34z m-404 -34 c22 -12 36 -21 32 -22 -17 -1 -83 39 -102 61
l-20 24 25 -21 c14 -12 43 -31 65 -42z m134 -38 c9 -8 -55 -2 -74 6 -13 6 -5
7 25 3 25 -3 47 -7 49 -9z m9372 -18 c-33 -35 -138 -79 -196 -82 l-50 -3 51 8
c58 10 146 47 184 79 33 29 39 27 11 -2z m-9324 8 c-3 -3 -12 -4 -19 -1 -8 3
-5 6 6 6 11 1 17 -2 13 -5z m4201 -91 c-10 -2 -28 -2 -40 0 -13 2 -5 4 17 4
22 1 32 -1 23 -4z"/>
</g>
</svg>
